<svg width="53" height="25" viewBox="0 0 53 25" fill="none" xmlns="http://www.w3.org/2000/svg">
<path d="M8.27273 24H0.0227273V0.727272H8.34091C10.6818 0.727272 12.697 1.19318 14.3864 2.125C16.0758 3.04924 17.375 4.37879 18.2841 6.11364C19.2008 7.84848 19.6591 9.92424 19.6591 12.3409C19.6591 14.7652 19.2008 16.8485 18.2841 18.5909C17.375 20.3333 16.0682 21.6705 14.3636 22.6023C12.6667 23.5341 10.6364 24 8.27273 24ZM4.94318 19.7841H8.06818C9.52273 19.7841 10.7462 19.5265 11.7386 19.0114C12.7386 18.4886 13.4886 17.6818 13.9886 16.5909C14.4962 15.4924 14.75 14.0758 14.75 12.3409C14.75 10.6212 14.4962 9.21591 13.9886 8.125C13.4886 7.03409 12.7424 6.23106 11.75 5.71591C10.7576 5.20076 9.53409 4.94318 8.07955 4.94318H4.94318V19.7841ZM28.2244 0.727272V24H23.304V0.727272H28.2244ZM52.8068 8.875H47.8295C47.7386 8.23106 47.553 7.65909 47.2727 7.15909C46.9924 6.65151 46.6326 6.2197 46.1932 5.86364C45.7538 5.50757 45.2462 5.23485 44.6705 5.04545C44.1023 4.85606 43.4848 4.76136 42.8182 4.76136C41.6136 4.76136 40.5644 5.06061 39.6705 5.65909C38.7765 6.25 38.0833 7.11364 37.5909 8.25C37.0985 9.37879 36.8523 10.75 36.8523 12.3636C36.8523 14.0227 37.0985 15.4167 37.5909 16.5455C38.0909 17.6742 38.7879 18.5265 39.6818 19.1023C40.5758 19.678 41.6098 19.9659 42.7841 19.9659C43.4432 19.9659 44.053 19.8788 44.6136 19.7045C45.1818 19.5303 45.6856 19.2765 46.125 18.9432C46.5644 18.6023 46.928 18.1894 47.2159 17.7045C47.5114 17.2197 47.7159 16.6667 47.8295 16.0455L52.8068 16.0682C52.678 17.1364 52.3561 18.1667 51.8409 19.1591C51.3333 20.1439 50.6477 21.0265 49.7841 21.8068C48.928 22.5795 47.9053 23.1932 46.7159 23.6477C45.5341 24.0947 44.197 24.3182 42.7045 24.3182C40.6288 24.3182 38.7727 23.8485 37.1364 22.9091C35.5076 21.9697 34.2197 20.6098 33.2727 18.8295C32.3333 17.0492 31.8636 14.8939 31.8636 12.3636C31.8636 9.82576 32.3409 7.66667 33.2955 5.88636C34.25 4.10606 35.5455 2.75 37.1818 1.81818C38.8182 0.878787 40.6591 0.40909 42.7045 0.40909C44.053 0.40909 45.303 0.598484 46.4545 0.977272C47.6136 1.35606 48.6402 1.90909 49.5341 2.63636C50.428 3.35606 51.1553 4.23864 51.7159 5.28409C52.2841 6.32954 52.6477 7.52651 52.8068 8.875Z" fill="#97B4FF"/>
</svg>
