<svg width="83" height="24" viewBox="0 0 83 24" fill="none" xmlns="http://www.w3.org/2000/svg">
<path d="M0.136364 4.78409V0.727272H19.25V4.78409H12.125V24H7.26136V4.78409H0.136364ZM21.0341 0.727272H26.5455L31.8523 10.75H32.0795L37.3864 0.727272H42.8977L34.4091 15.7727V24H29.5227V15.7727L21.0341 0.727272ZM45.5852 24V0.727272H54.767C56.5322 0.727272 58.036 1.06439 59.2784 1.73864C60.5208 2.4053 61.4678 3.33333 62.1193 4.52273C62.7784 5.70454 63.108 7.06818 63.108 8.61364C63.108 10.1591 62.7746 11.5227 62.108 12.7045C61.4413 13.8864 60.4754 14.8068 59.2102 15.4659C57.9527 16.125 56.4299 16.4545 54.642 16.4545H48.7898V12.5114H53.8466C54.7936 12.5114 55.5739 12.3485 56.1875 12.0227C56.8087 11.6894 57.2708 11.2311 57.5739 10.6477C57.8845 10.0568 58.0398 9.37879 58.0398 8.61364C58.0398 7.84091 57.8845 7.16667 57.5739 6.59091C57.2708 6.00757 56.8087 5.55682 56.1875 5.23864C55.5663 4.91288 54.7784 4.75 53.8239 4.75H50.5057V24H45.5852ZM66.304 24V0.727272H81.9858V4.78409H71.2244V10.3295H81.179V14.3864H71.2244V19.9432H82.0312V24H66.304Z" fill="#FFB097"/>
</svg>
